<?xml version="1.0" encoding="utf-8"?>
<!-- Generator: Adobe Illustrator 27.9.6, SVG Export Plug-In . SVG Version: 9.03 Build 54986)  -->
<svg version="1.1" id="Ebene_1" xmlns="http://www.w3.org/2000/svg" xmlns:xlink="http://www.w3.org/1999/xlink" x="0px" y="0px"
	 viewBox="0 0 637 637" style="enable-background:new 0 0 637 637;" xml:space="preserve">
<style type="text/css">
	.st0{fill:#FFFFFF;}
	.st1{opacity:0.4;enable-background:new    ;}
</style>
<g>
	<path class="st0" d="M551.7,637H85.3C38.2,637,0,598.8,0,551.7V85.3C0,38.2,38.2,0,85.3,0h466.3C598.8,0,637,38.2,637,85.3v466.3
		C637,598.8,598.8,637,551.7,637z"/>
</g>
<g>
	<path class="st1" d="M62.5,460.6v113.9h128v-64h64v-64h49.9l40.3-40.3L230.8,292.3L62.5,460.6L62.5,460.6z"/>
	<path d="M230.8,292.2l114,114c16.9,5.4,35,8.3,53.7,8.3c97.2,0,176-78.8,176-176s-78.8-176-176-176s-176,78.8-176,176
		C222.5,257.2,225.4,275.3,230.8,292.2z M398.5,198.5c0-22.1,17.9-40,40-40s40,17.9,40,40s-17.9,40-40,40S398.5,220.6,398.5,198.5z"
		/>
</g>
</svg>
